<svg id="Layer_1" data-name="Layer 1" xmlns="http://www.w3.org/2000/svg" viewBox="0 0 481.77 481.39"><defs><style>.cls-1{fill:#f6f1cb;}</style></defs><path class="cls-1" d="M400.54,451.9c-4.5-1.56-8.11-2.54-11.49-4-8.71-3.84-17.26-8-26-11.78a8.83,8.83,0,0,0-6-.08c-16,6.12-31.86,12.56-47.87,18.63-2.8,1.06-4.18,2.27-5,5.24-2.4,9.18-5,18.33-8,27.34-3.07,9.22-6.75,11.5-16.29,11.49-16.4,0-32.79,0-49.19,0-7.67,0-11.71-2.41-14.14-9.73-3.19-9.62-5.88-19.4-8.51-29.19-.78-2.92-2.24-4.14-5-5.19-15.59-5.87-31.13-11.92-46.53-18.28-3.07-1.27-5.38-1.4-8.31,0-9.34,4.33-18.74,8.54-28.21,12.55s-11.87,3-18.67-4.58c-11.75-13.15-23.69-26.13-35.6-39.14-5.78-6.32-6.2-9.27-2.18-16.69,4.61-8.51,9.26-17,13.64-25.62a6.29,6.29,0,0,0,0-5C69,342.4,63.32,326.08,58.28,309.48a6.51,6.51,0,0,0-3.8-3.72c-9.61-2.71-19.36-4.9-29-7.59-7.18-2-10-5.3-10.14-12.73-.26-18.42-.1-36.85,0-55.27,0-6.9,3.49-11.5,10.21-13.41,9-2.55,18-5.15,27-7.52,3-.8,5-1.78,5.91-5.35a196.92,196.92,0,0,1,18.2-46.51c1.45-2.67,1.26-4.65-.3-7.28-4.86-8.17-9.4-16.54-14-24.89-3.09-5.63-2.25-10.56,2.39-15.23,13.09-13.18,26-26.51,38.93-39.87,3.7-3.83,8-4.14,12.45-2.31q15.38,6.27,30.55,13c3.47,1.53,6.35,1.81,10-.19A227.58,227.58,0,0,1,204.3,61.16c1.43-.4,2.93-2.47,3.41-4.06,2.71-9,4.93-18.06,7.67-27,3.07-10,6.93-12.64,17.43-12.65,15.77,0,31.55,0,47.32-.09,8.52-.06,13.2,2.76,15.88,10.94,2.9,8.88,5.37,17.92,7.73,27,.94,3.62,2.55,5.4,6.31,6.83,15.72,6,31.22,12.51,46.7,19.08,2.82,1.2,5,1.41,7.86.14,10.12-4.5,20.37-8.68,30.54-13.06,6.18-2.66,10.94-.91,15.45,3.84,11.62,12.22,23.47,24.21,35.29,36.23,7.2,7.33,7.77,9.76,3,18.88-4.29,8.14-9.05,16-13.37,24.15a6.76,6.76,0,0,0-.3,5q9.51,24.62,19.44,49.08a6.09,6.09,0,0,0,3.57,2.84c9.51,3,19.1,5.74,28.62,8.7,7,2.18,10.16,7.14,10.13,14.46-.06,17.18.11,34.35,0,51.53,0,9.54-2.2,12.58-11.25,15.21s-18.42,4.72-27.55,7.37a7.58,7.58,0,0,0-4.33,3.91c-6.28,15.75-12.2,31.64-18.5,47.39-1.09,2.72-1.31,4.76.15,7.35,4.45,7.88,8.7,15.87,13,23.85,4.73,8.8,4.53,10.51-2.2,17.69-8,8.54-16.13,17-24.07,25.56-4.65,5.05-8.84,10.53-13.65,15.41C406.33,449,403.12,450.28,400.54,451.9ZM261.94,154.66c-27,.11-49.74,5.31-72,15.64-39.8,18.49-70.32,48-97.06,82-2.07,2.63-2,4.38,0,6.86,23.1,29.22,49,55.32,81.06,74.91,25,15.29,51.84,24.6,81.29,25,32.61.42,61.85-10.58,88.83-28.06,29.16-18.89,52.71-43.8,74.52-70.53,2.79-3.42,2.67-5.81,0-9.22C395.26,221,368.19,195,334.4,176.62,310.23,163.47,284.72,154.91,261.94,154.66Z" transform="translate(-15.23 -17.35)"/><path class="cls-1" d="M350,302.24c3.43-7,6.64-13,9.38-19.17,3.59-8.12,6.89-16.38,10.1-24.66.5-1.29.45-3.59-.37-4.49-11.69-12.89-24.51-24.47-39.58-33.36-.62-.36-1.3-.62-2.45-1.16,16.41,42.67,8.71,78.75-29.46,104.68-26.24,17.84-65.28,14.91-89.95-4A77.44,77.44,0,0,1,178.47,274c-4.06-18.52-1.38-36.53,6.22-53.9l-1-.92c-7.12,5.29-14.47,10.29-21.28,16-6.34,5.27-12,11.41-18.17,16.86-2.78,2.43-2.86,4.76-1.52,7.73,5,11.08,9.9,22.19,14.92,33.26,1.31,2.91,2.89,5.69,4.35,8.54l-1.36,1.13c-10.14-10.24-20.43-20.33-30.34-30.79-3.95-4.16-7-9.14-10.61-13.67-1.63-2.08-1.38-3.77.21-5.8,30.2-38.44,67.67-65.73,116.42-75.44,22.22-4.42,43.77-1.13,64.77,6.79,35.53,13.39,64.53,35.62,88.29,65,5,6.16,5.13,6.31.63,12.59C379,276.72,366.39,290.62,350,302.24Zm-35.6-46.06c.18-33.32-24.85-58.93-57.8-59.15-32.69-.21-58.58,25.45-58.81,58.31S223,313.88,256,314.17C288.59,314.46,314.17,289,314.36,256.18Z" transform="translate(-15.23 -17.35)"/><path class="cls-1" d="M276.18,216.46c-11.27,4.29-17.24,12.29-17.46,22.88-.2,10,5.34,18.88,13.92,22.4,10,4.13,18.45,1.77,27.8-7.78,1.89,17.79-11,36.88-29.15,43.16-20.31,7-41.28-.14-52.75-18-10.71-16.71-8.14-40.35,6-54.86C237.33,211,261,207.38,276.18,216.46Z" transform="translate(-15.23 -17.35)"/></svg>