<svg id="Layer_1" data-name="Layer 1" xmlns="http://www.w3.org/2000/svg" viewBox="0 0 481.82 481.38"><defs><style>.cls-1{fill:#f6f1cb;}</style></defs><path class="cls-1" d="M385.31,434.55c-4.5-1.56-8.11-2.54-11.49-4-8.71-3.84-17.26-8-26-11.78a8.83,8.83,0,0,0-6-.08c-16,6.12-31.86,12.56-47.87,18.63-2.8,1.06-4.18,2.27-5,5.24-2.4,9.18-5,18.33-8,27.34-3.07,9.22-6.75,11.5-16.29,11.49H215.47c-7.67,0-11.71-2.41-14.14-9.73-3.19-9.62-5.88-19.4-8.51-29.19-.78-2.92-2.24-4.14-5-5.19-15.59-5.87-31.13-11.92-46.53-18.28-3.07-1.27-5.38-1.4-8.31,0-9.34,4.33-18.74,8.54-28.21,12.55s-11.87,3-18.67-4.58c-11.75-13.15-23.69-26.13-35.6-39.14-5.78-6.32-6.2-9.27-2.18-16.69,4.61-8.51,9.26-17,13.64-25.62a6.3,6.3,0,0,0,0-5c-8.19-15.47-13.87-31.79-18.91-48.39a6.51,6.51,0,0,0-3.8-3.72c-9.61-2.71-19.36-4.9-29-7.59-7.18-2-10-5.3-10.14-12.73-.26-18.42-.1-36.85,0-55.27,0-6.9,3.49-11.5,10.21-13.41,9-2.55,18-5.15,27-7.52,3-.8,5-1.78,5.91-5.35A196.92,196.92,0,0,1,61.43,140c1.45-2.67,1.26-4.65-.3-7.28-4.86-8.17-9.4-16.54-14-24.89C44,102.23,44.88,97.3,49.52,92.63c13.09-13.18,26-26.51,38.93-39.87,3.7-3.83,8-4.14,12.45-2.31q15.38,6.27,30.55,13c3.47,1.53,6.35,1.81,10-.19a227.55,227.55,0,0,1,47.62-19.45c1.43-.4,2.93-2.47,3.41-4.06,2.71-9,4.93-18.06,7.67-27C203.22,2.75,207.08.11,217.58.1,233.35.1,249.13.1,264.9,0,273.42,0,278.1,2.77,280.78,11c2.9,8.88,5.37,17.92,7.73,27,.94,3.62,2.55,5.4,6.31,6.83,15.72,6,31.22,12.51,46.7,19.08,2.82,1.2,5,1.41,7.86.14,10.12-4.5,20.37-8.68,30.54-13.06,6.18-2.66,10.94-.91,15.45,3.84C407,67,418.84,79,430.66,91c7.2,7.33,7.77,9.76,3,18.88-4.29,8.14-9.05,16-13.37,24.15a6.76,6.76,0,0,0-.3,5q9.51,24.61,19.44,49.08A6.13,6.13,0,0,0,443,191c9.51,3,19.1,5.74,28.62,8.7,7,2.18,10.16,7.14,10.13,14.46-.06,17.18.11,34.35,0,51.53,0,9.54-2.2,12.58-11.25,15.21s-18.42,4.72-27.55,7.37a7.54,7.54,0,0,0-4.33,3.91c-6.28,15.75-12.2,31.64-18.5,47.39-1.09,2.72-1.31,4.76.15,7.35,4.45,7.88,8.7,15.87,13,23.85,4.73,8.8,4.53,10.51-2.2,17.69-8,8.54-16.13,17-24.07,25.56-4.65,5-8.84,10.53-13.65,15.41C391.1,431.65,387.89,432.93,385.31,434.55ZM246.71,137.31c-27,.11-49.74,5.31-72,15.64-39.8,18.49-70.32,48-97.06,82-2.07,2.63-2,4.38,0,6.86,23.1,29.22,49,55.32,81.06,74.91,25,15.29,51.84,24.6,81.29,25,32.61.42,61.85-10.58,88.83-28.06,29.16-18.89,52.71-43.8,74.52-70.53,2.79-3.42,2.67-5.81,0-9.22C380,203.65,353,177.65,319.17,159.27,295,146.12,269.49,137.56,246.71,137.31Z" transform="translate(0.03 -0.01)"/><path class="cls-1" d="M334.77,284.89c3.43-7,6.64-13,9.38-19.17,3.59-8.12,6.89-16.38,10.1-24.66.5-1.29.45-3.59-.37-4.49-11.69-12.89-24.51-24.47-39.58-33.36-.62-.36-1.3-.62-2.45-1.16,16.41,42.67,8.71,78.75-29.46,104.68-26.24,17.84-65.28,14.91-89.95-4a77.44,77.44,0,0,1-29.2-46.08c-4.06-18.52-1.38-36.53,6.22-53.9l-1-.92c-7.12,5.29-14.47,10.29-21.28,16-6.34,5.27-12,11.41-18.17,16.86-2.78,2.43-2.86,4.76-1.52,7.73,5,11.08,9.9,22.19,14.92,33.26,1.31,2.91,2.89,5.69,4.35,8.54l-1.36,1.13C135.26,275.11,125,265,115.06,254.56c-4-4.16-7-9.14-10.61-13.67-1.63-2.08-1.38-3.77.21-5.8,30.2-38.44,67.67-65.73,116.42-75.44,22.22-4.42,43.77-1.13,64.77,6.79,35.53,13.39,64.53,35.62,88.29,65,5,6.16,5.13,6.31.63,12.59C363.77,259.37,351.16,273.27,334.77,284.89Zm-35.6-46.06c.18-33.32-24.85-58.93-57.8-59.15-32.69-.21-58.58,25.45-58.81,58.31s25.21,58.54,58.21,58.83c32.59.29,58.17-25.17,58.36-58Z" transform="translate(0.03 -0.01)"/><path class="cls-1" d="M261,199.11c-11.27,4.29-17.24,12.29-17.46,22.88-.2,10,5.34,18.88,13.92,22.4,10,4.13,18.45,1.77,27.8-7.78,1.89,17.79-11,36.88-29.15,43.16-20.31,7-41.28-.14-52.75-18-10.71-16.71-8.14-40.35,6-54.86C222.1,193.65,245.77,190,261,199.11Z" transform="translate(0.03 -0.01)"/></svg>