<?xml version="1.0" encoding="utf-8"?>
<!-- Generator: Adobe Illustrator 25.2.3, SVG Export Plug-In . SVG Version: 6.00 Build 0)  -->
<svg version="1.1" id="Layer_1" xmlns="http://www.w3.org/2000/svg" xmlns:xlink="http://www.w3.org/1999/xlink" x="0px" y="0px"
	 width="55px" height="55px" viewBox="0 0 55 55" style="enable-background:new 0 0 55 55;" xml:space="preserve">
<style type="text/css">
	.st0{fill:#F6F1CB;}
	.st1{fill:none;stroke:#F6F1CB;stroke-width:2;stroke-linecap:round;stroke-miterlimit:10;}
</style>
<path class="st0" d="M49.16,39.62c-0.44-0.05-1.14-0.15-1.84-0.19c-1.87-0.1-3.02,1.51-2.32,3.24c0.27,0.68,0.6,1.34,0.88,2.01
	c0.67,1.64,0.25,3.18-1.15,4.24c-0.71,0.53-1.42,1.06-2.15,1.56c-1.49,1.03-3.1,0.94-4.47-0.22c-0.56-0.48-1.08-1-1.64-1.46
	c-1.37-1.13-3.2-0.58-3.71,1.13c-0.22,0.73-0.32,1.49-0.5,2.23c-0.42,1.74-1.69,2.78-3.48,2.82c-0.92,0.02-1.83,0.03-2.75,0
	c-1.62-0.05-2.91-1.1-3.31-2.67c-0.19-0.74-0.32-1.49-0.51-2.23c-0.47-1.87-2.35-2.46-3.83-1.2c-0.56,0.47-1.08,0.99-1.64,1.46
	c-1.24,1.04-2.9,1.14-4.25,0.23c-0.81-0.55-1.6-1.13-2.37-1.72c-1.29-1-1.7-2.58-1.08-4.11c0.28-0.71,0.63-1.39,0.91-2.1
	c0.67-1.76-0.48-3.32-2.37-3.2c-0.73,0.05-1.46,0.17-2.19,0.21c-1.83,0.1-3.13-0.78-3.7-2.51c-0.28-0.84-0.56-1.68-0.8-2.53
	c-0.45-1.57,0.06-3.01,1.41-3.92c0.66-0.44,1.37-0.79,2.05-1.22c1.6-1.01,1.62-2.96,0.04-3.98c-0.62-0.4-1.27-0.73-1.9-1.11
	c-1.44-0.87-2.06-2.4-1.6-4.02c0.27-0.94,0.57-1.87,0.9-2.79c0.58-1.59,2.06-2.48,3.75-2.31c0.64,0.07,1.27,0.15,1.91,0.22
	c2,0.21,3.24-1.44,2.47-3.32c-0.27-0.65-0.58-1.28-0.85-1.93c-0.63-1.52-0.25-3.11,1.02-4.13c0.79-0.63,1.6-1.22,2.44-1.78
	c1.31-0.87,2.86-0.8,4.1,0.17c0.6,0.47,1.14,1.02,1.72,1.51c1.52,1.3,3.4,0.72,3.89-1.21c0.18-0.71,0.3-1.43,0.48-2.14
	c0.42-1.65,1.69-2.66,3.37-2.7c0.92-0.02,1.83-0.02,2.75,0c1.68,0.04,2.97,1.05,3.39,2.68c0.17,0.65,0.27,1.31,0.42,1.97
	c0.48,2.13,2.36,2.77,4.01,1.36c0.53-0.46,1.02-0.96,1.57-1.4c1.33-1.05,2.84-1.12,4.24-0.19c0.79,0.53,1.55,1.08,2.3,1.66
	c1.32,1,1.75,2.54,1.14,4.09c-0.28,0.71-0.63,1.39-0.92,2.1c-0.74,1.81,0.51,3.46,2.46,3.26c0.64-0.07,1.27-0.15,1.91-0.22
	c1.75-0.19,3.21,0.71,3.8,2.35c0.31,0.86,0.6,1.73,0.86,2.61c0.51,1.74-0.09,3.23-1.63,4.16c-0.6,0.36-1.22,0.69-1.82,1.06
	c-1.63,1.03-1.61,3.02,0.04,4.03c0.62,0.39,1.28,0.72,1.89,1.12c1.47,0.94,2.01,2.37,1.53,4.03c-0.24,0.82-0.52,1.63-0.79,2.44
	C52.66,38.9,51.36,39.76,49.16,39.62z M47.75,17.47c-3.69,0.18-5.84-2.84-4.59-5.97c0.25-0.62,0.53-1.23,0.82-1.84
	c0.39-0.84,0.25-1.54-0.51-2.1c-0.69-0.5-1.39-1-2.08-1.5c-0.66-0.48-1.31-0.44-1.92,0.09c-0.6,0.52-1.17,1.08-1.78,1.58
	c-2.53,2.05-6.18,0.79-6.91-2.39c-0.17-0.71-0.32-1.43-0.47-2.14c-0.17-0.8-0.69-1.2-1.49-1.23c-0.88-0.02-1.77-0.01-2.66,0
	c-0.81,0.01-1.32,0.42-1.51,1.2c-0.17,0.68-0.29,1.37-0.45,2.06c-0.74,3.33-4.47,4.6-7.07,2.4c-0.54-0.45-1.04-0.95-1.56-1.41
	c-0.66-0.58-1.35-0.65-2.08-0.11c-0.59,0.44-1.19,0.86-1.78,1.29c-1,0.73-1.16,1.31-0.67,2.43c0.32,0.73,0.68,1.44,0.91,2.19
	c0.87,2.85-1.28,5.61-4.25,5.48c-0.76-0.03-1.52-0.13-2.28-0.21c-0.91-0.1-1.54,0.22-1.82,1.14c-0.24,0.79-0.53,1.56-0.76,2.35
	c-0.25,0.83-0.06,1.5,0.74,1.94c0.67,0.37,1.33,0.74,1.97,1.16c2.64,1.72,2.68,5.38,0.07,7.15c-0.66,0.44-1.35,0.83-2.04,1.22
	c-0.8,0.45-0.99,1.13-0.74,1.95c0.23,0.79,0.51,1.57,0.77,2.35c0.28,0.86,0.87,1.21,1.75,1.12c0.64-0.07,1.27-0.14,1.91-0.21
	c3.44-0.37,5.84,2.81,4.52,6c-0.27,0.65-0.58,1.28-0.85,1.93c-0.33,0.8-0.18,1.49,0.55,2.01c0.67,0.48,1.34,0.97,2.01,1.45
	c0.72,0.52,1.42,0.47,2.08-0.12c0.55-0.49,1.07-1.01,1.64-1.47c2.62-2.13,6.27-0.84,6.99,2.46c0.14,0.66,0.27,1.32,0.42,1.97
	c0.18,0.82,0.7,1.27,1.54,1.3c0.85,0.03,1.71,0.02,2.57,0c0.87-0.02,1.43-0.43,1.6-1.33c0.13-0.72,0.29-1.44,0.47-2.14
	c0.81-3.17,4.47-4.34,6.96-2.24c0.54,0.45,1.04,0.94,1.57,1.41c0.68,0.61,1.4,0.7,2.16,0.15c0.69-0.5,1.39-0.99,2.07-1.52
	c0.63-0.49,0.82-1.12,0.49-1.87c-0.28-0.64-0.57-1.28-0.85-1.93c-1.38-3.21,1.04-6.46,4.52-6.07c0.61,0.07,1.21,0.14,1.82,0.19
	c1.07,0.09,1.48-0.18,1.85-1.22c0.26-0.75,0.48-1.51,0.74-2.26c0.29-0.82,0.04-1.43-0.68-1.88c-0.67-0.42-1.38-0.79-2.04-1.22
	c-2.7-1.77-2.66-5.54,0.08-7.25c0.65-0.41,1.33-0.75,1.97-1.16c0.67-0.42,0.94-1.01,0.69-1.8c-0.27-0.81-0.51-1.63-0.79-2.44
	c-0.32-0.92-0.84-1.23-1.83-1.14C48.82,17.35,48.12,17.43,47.75,17.47z"/>
<path class="st0" d="M27.48,18.57c4.84-0.03,8.87,3.95,8.9,8.77c0.03,4.95-3.89,9.01-8.74,9.04c-5.06,0.03-9.05-3.89-9.07-8.9
	C18.56,22.55,22.51,18.6,27.48,18.57z M27.47,35.28c4.32,0,7.81-3.48,7.81-7.79c0-4.35-3.49-7.82-7.88-7.84
	c-4.18-0.02-7.74,3.56-7.75,7.78C19.65,31.76,23.16,35.28,27.47,35.28z"/>
<path class="st1" d="M12.21,27.5c3.13-5.78,9.02-9.35,15.35-9.32c6.27,0.03,12.06,3.59,15.17,9.3"/>
<path class="st1" d="M42.73,27.5c-3.13,5.78-9.02,9.35-15.35,9.32c-6.27-0.03-12.06-3.59-15.17-9.3"/>
</svg>
