<svg id="Layer_1" data-name="Layer 1" xmlns="http://www.w3.org/2000/svg" viewBox="0 0 53.5 55.04"><defs><style>.cls-1{fill:#f6f1cb;}.cls-2{fill:none;stroke:#f6f1cb;stroke-linecap:round;stroke-miterlimit:10;stroke-width:2px;}</style></defs><path class="cls-1" d="M49.16,39.62c-.44,0-1.14-.15-1.84-.19A2.27,2.27,0,0,0,45,42.67c.27.68.6,1.34.88,2a3.39,3.39,0,0,1-1.15,4.23c-.71.54-1.42,1.06-2.15,1.56a3.44,3.44,0,0,1-4.47-.22c-.56-.47-1.08-1-1.64-1.46a2.25,2.25,0,0,0-3.71,1.13c-.21.73-.32,1.49-.5,2.23A3.46,3.46,0,0,1,28.79,55C27.87,55,27,55,26,55a3.45,3.45,0,0,1-3.31-2.67c-.19-.74-.32-1.49-.51-2.23a2.25,2.25,0,0,0-3.83-1.2c-.56.47-1.09,1-1.65,1.46a3.44,3.44,0,0,1-4.24.23c-.81-.55-1.6-1.13-2.37-1.73A3.41,3.41,0,0,1,9,44.74c.29-.71.63-1.39.91-2.11a2.26,2.26,0,0,0-2.37-3.2c-.74,0-1.46.17-2.19.21a3.41,3.41,0,0,1-3.7-2.5c-.28-.84-.56-1.68-.8-2.53A3.36,3.36,0,0,1,2.3,30.69c.66-.44,1.38-.79,2.05-1.22a2.25,2.25,0,0,0,0-4c-.61-.4-1.27-.74-1.89-1.11a3.45,3.45,0,0,1-1.61-4q.4-1.41.9-2.79a3.48,3.48,0,0,1,3.75-2.3c.64.06,1.27.15,1.91.22a2.3,2.3,0,0,0,2.47-3.32c-.27-.65-.58-1.28-.85-1.93a3.43,3.43,0,0,1,1-4.12c.79-.63,1.61-1.23,2.45-1.78a3.38,3.38,0,0,1,4.09.17c.6.47,1.14,1,1.72,1.51a2.26,2.26,0,0,0,3.89-1.21c.18-.71.3-1.44.48-2.15A3.42,3.42,0,0,1,26.09,0c.91,0,1.83,0,2.75,0a3.46,3.46,0,0,1,3.39,2.69c.17.64.27,1.31.42,2,.48,2.13,2.36,2.77,4,1.36.53-.46,1-1,1.57-1.4a3.39,3.39,0,0,1,4.24-.18c.79.52,1.56,1.08,2.31,1.65a3.37,3.37,0,0,1,1.14,4.09c-.27.71-.63,1.39-.91,2.1a2.28,2.28,0,0,0,2.46,3.26c.64-.06,1.27-.15,1.91-.22a3.48,3.48,0,0,1,3.8,2.35c.31.86.6,1.73.86,2.61a3.43,3.43,0,0,1-1.63,4.16c-.6.36-1.22.69-1.81,1.06a2.28,2.28,0,0,0,0,4c.62.38,1.28.72,1.89,1.12a3.37,3.37,0,0,1,1.53,4c-.23.82-.52,1.63-.79,2.44C52.66,38.9,51.36,39.76,49.16,39.62ZM47.75,17.47c-3.69.18-5.84-2.84-4.59-6,.24-.62.53-1.23.81-1.84a1.53,1.53,0,0,0-.5-2.1l-2.08-1.5a1.42,1.42,0,0,0-1.92.09c-.6.52-1.17,1.08-1.78,1.58a4.26,4.26,0,0,1-6.91-2.39c-.17-.71-.33-1.43-.48-2.14A1.42,1.42,0,0,0,28.81,2C27.93,2,27,2,26.16,2a1.46,1.46,0,0,0-1.52,1.2c-.16.69-.29,1.38-.44,2.06a4.28,4.28,0,0,1-7.07,2.4c-.54-.46-1-1-1.56-1.42a1.5,1.5,0,0,0-2.08-.11c-.59.44-1.19.86-1.78,1.29A1.66,1.66,0,0,0,11,9.82,20,20,0,0,1,12,12,4.21,4.21,0,0,1,7.7,17.5c-.76,0-1.52-.14-2.27-.22A1.52,1.52,0,0,0,3.6,18.42c-.24.78-.52,1.56-.76,2.35a1.5,1.5,0,0,0,.74,1.94c.67.37,1.33.74,2,1.16A4.23,4.23,0,0,1,5.62,31c-.66.44-1.35.83-2.05,1.22a1.51,1.51,0,0,0-.74,1.94c.24.79.51,1.57.77,2.35a1.5,1.5,0,0,0,1.75,1.13l1.91-.21a4.29,4.29,0,0,1,4.53,6c-.27.65-.59,1.28-.85,1.93a1.52,1.52,0,0,0,.55,2l2,1.45a1.52,1.52,0,0,0,2.08-.12c.55-.49,1.07-1,1.64-1.47a4.26,4.26,0,0,1,7,2.46c.14.66.27,1.31.41,2A1.53,1.53,0,0,0,26.16,53c.85,0,1.71,0,2.56,0a1.5,1.5,0,0,0,1.6-1.33c.14-.72.29-1.43.48-2.14a4.26,4.26,0,0,1,7-2.24c.53.45,1,.94,1.56,1.41a1.56,1.56,0,0,0,2.16.14c.69-.5,1.39-1,2.07-1.51A1.44,1.44,0,0,0,44,45.44c-.29-.64-.57-1.28-.85-1.92a4.29,4.29,0,0,1,4.51-6.07c.61.07,1.22.14,1.83.19,1.06.09,1.48-.18,1.84-1.22.27-.74.48-1.51.75-2.26a1.44,1.44,0,0,0-.68-1.87c-.67-.42-1.38-.79-2-1.22a4.25,4.25,0,0,1,.08-7.26c.64-.4,1.33-.75,2-1.16a1.44,1.44,0,0,0,.69-1.8c-.27-.81-.51-1.63-.79-2.43a1.5,1.5,0,0,0-1.83-1.14Z" transform="translate(-0.73 0.04)"/><path class="cls-1" d="M27.48,18.57a8.91,8.91,0,1,1-8.91,8.91A8.9,8.9,0,0,1,27.48,18.57Zm0,16.71a7.82,7.82,0,1,0-7.82-7.85A7.8,7.8,0,0,0,27.47,35.28Z" transform="translate(-0.73 0.04)"/><path class="cls-2" d="M12.21,27.5a17.48,17.48,0,0,1,15.36-9.32,17.46,17.46,0,0,1,15.16,9.3" transform="translate(-0.73 0.04)"/><path class="cls-2" d="M42.73,27.5a17.45,17.45,0,0,1-15.35,9.32,17.49,17.49,0,0,1-15.17-9.3" transform="translate(-0.73 0.04)"/></svg>