<?xml version="1.0" encoding="utf-8"?>
<!-- Generator: Adobe Illustrator 25.2.3, SVG Export Plug-In . SVG Version: 6.00 Build 0)  -->
<svg version="1.1" id="Layer_1" xmlns="http://www.w3.org/2000/svg" xmlns:xlink="http://www.w3.org/1999/xlink" x="0px" y="0px"
	 width="55px" height="55px" viewBox="0 0 55 55" style="enable-background:new 0 0 55 55;" xml:space="preserve">
<style type="text/css">
	.st0{fill:#F6F1CB;stroke:#F6F1CB;stroke-width:2;stroke-miterlimit:10;}
	.st1{fill:none;stroke:#F6F1CB;stroke-width:3;stroke-linecap:round;stroke-miterlimit:10;}
</style>
<path class="st0" d="M46.43,38.09c-0.39-0.04-1-0.13-1.61-0.16c-1.64-0.09-2.64,1.32-2.03,2.83c0.24,0.59,0.53,1.17,0.77,1.76
	c0.58,1.43,0.22,2.78-1,3.7c-0.62,0.47-1.24,0.92-1.88,1.36c-1.3,0.9-2.71,0.82-3.9-0.19c-0.49-0.42-0.94-0.87-1.44-1.28
	c-1.2-0.99-2.8-0.51-3.24,0.99c-0.19,0.64-0.28,1.3-0.44,1.95c-0.36,1.52-1.47,2.43-3.04,2.47c-0.8,0.02-1.6,0.02-2.4,0
	c-1.41-0.04-2.55-0.96-2.89-2.33c-0.16-0.65-0.28-1.3-0.45-1.95c-0.41-1.64-2.05-2.15-3.35-1.05c-0.49,0.41-0.95,0.86-1.44,1.28
	c-1.09,0.91-2.54,1-3.71,0.2c-0.71-0.48-1.4-0.98-2.07-1.51c-1.13-0.88-1.49-2.26-0.95-3.59c0.25-0.62,0.55-1.21,0.79-1.84
	c0.59-1.54-0.42-2.9-2.07-2.8c-0.64,0.04-1.27,0.15-1.91,0.18c-1.6,0.09-2.73-0.69-3.23-2.19c-0.24-0.73-0.49-1.47-0.7-2.21
	c-0.4-1.37,0.05-2.63,1.24-3.42c0.58-0.39,1.2-0.69,1.79-1.06c1.4-0.88,1.42-2.58,0.03-3.48c-0.54-0.35-1.11-0.64-1.66-0.97
	c-1.26-0.76-1.8-2.1-1.4-3.51c0.23-0.82,0.49-1.63,0.79-2.44c0.51-1.39,1.8-2.17,3.28-2.02c0.56,0.06,1.11,0.13,1.67,0.19
	c1.75,0.19,2.83-1.26,2.16-2.9c-0.23-0.57-0.51-1.12-0.74-1.68c-0.55-1.33-0.22-2.71,0.89-3.61c0.69-0.55,1.4-1.07,2.13-1.56
	c1.14-0.76,2.5-0.7,3.58,0.15c0.52,0.41,1,0.89,1.5,1.32c1.33,1.14,2.97,0.63,3.4-1.06c0.16-0.62,0.26-1.25,0.42-1.87
	c0.37-1.44,1.47-2.33,2.95-2.36c0.8-0.02,1.6-0.02,2.4,0c1.47,0.03,2.6,0.92,2.97,2.35C31.78,6.35,31.87,6.93,32,7.5
	c0.42,1.86,2.06,2.42,3.5,1.19c0.47-0.4,0.89-0.84,1.37-1.22c1.16-0.92,2.48-0.98,3.71-0.16c0.69,0.46,1.36,0.95,2.01,1.45
	c1.15,0.88,1.53,2.22,1,3.57c-0.24,0.62-0.55,1.22-0.8,1.83c-0.65,1.58,0.45,3.03,2.15,2.85c0.56-0.06,1.11-0.13,1.67-0.19
	c1.53-0.16,2.81,0.62,3.32,2.06c0.27,0.75,0.53,1.51,0.75,2.28c0.44,1.52-0.08,2.82-1.42,3.64c-0.53,0.32-1.07,0.6-1.59,0.93
	c-1.42,0.9-1.41,2.64,0.03,3.53c0.54,0.34,1.12,0.63,1.65,0.98c1.28,0.83,1.76,2.08,1.34,3.53c-0.21,0.72-0.45,1.42-0.69,2.13
	C49.49,37.46,48.35,38.21,46.43,38.09z M45.19,18.73c-3.22,0.16-5.1-2.48-4.01-5.22c0.22-0.54,0.47-1.08,0.71-1.61
	c0.34-0.73,0.22-1.35-0.44-1.83c-0.6-0.44-1.21-0.87-1.82-1.31c-0.58-0.42-1.14-0.38-1.68,0.08c-0.53,0.45-1.02,0.94-1.56,1.38
	c-2.21,1.79-5.4,0.69-6.04-2.09c-0.14-0.62-0.28-1.25-0.41-1.87c-0.15-0.7-0.61-1.05-1.3-1.07c-0.77-0.02-1.55-0.01-2.32,0
	C25.62,5.19,25.17,5.55,25,6.24c-0.15,0.6-0.26,1.2-0.39,1.8c-0.65,2.91-3.91,4.02-6.18,2.1c-0.47-0.4-0.91-0.83-1.36-1.24
	c-0.57-0.51-1.18-0.57-1.81-0.1c-0.51,0.38-1.04,0.75-1.56,1.13c-0.88,0.64-1.01,1.15-0.58,2.13c0.28,0.63,0.59,1.26,0.79,1.92
	c0.76,2.49-1.12,4.91-3.71,4.79c-0.67-0.03-1.33-0.12-1.99-0.19c-0.79-0.09-1.35,0.2-1.59,0.99c-0.21,0.69-0.46,1.36-0.67,2.05
	c-0.22,0.72-0.05,1.31,0.65,1.7c0.58,0.32,1.17,0.65,1.72,1.01c2.31,1.5,2.34,4.7,0.06,6.25c-0.57,0.39-1.18,0.73-1.79,1.06
	c-0.7,0.39-0.86,0.98-0.65,1.7c0.2,0.69,0.45,1.37,0.67,2.05c0.24,0.75,0.76,1.06,1.53,0.98c0.56-0.06,1.11-0.12,1.67-0.18
	c3-0.32,5.1,2.46,3.95,5.24c-0.23,0.57-0.51,1.12-0.74,1.68c-0.29,0.7-0.16,1.3,0.48,1.76c0.59,0.42,1.17,0.84,1.75,1.26
	c0.63,0.45,1.24,0.41,1.82-0.1c0.48-0.43,0.93-0.88,1.43-1.28c2.29-1.86,5.48-0.73,6.11,2.15c0.12,0.57,0.24,1.15,0.36,1.72
	c0.16,0.72,0.62,1.11,1.35,1.13c0.75,0.02,1.5,0.02,2.24,0c0.76-0.02,1.25-0.37,1.4-1.16c0.12-0.63,0.25-1.25,0.41-1.87
	c0.71-2.77,3.9-3.79,6.08-1.96c0.47,0.4,0.91,0.82,1.37,1.23c0.59,0.53,1.22,0.61,1.89,0.13c0.6-0.44,1.22-0.87,1.81-1.33
	c0.55-0.43,0.71-0.97,0.43-1.63c-0.25-0.56-0.5-1.12-0.74-1.68c-1.21-2.8,0.91-5.64,3.95-5.3c0.53,0.06,1.06,0.12,1.59,0.17
	c0.93,0.08,1.3-0.16,1.62-1.07c0.23-0.65,0.42-1.32,0.65-1.98c0.25-0.72,0.03-1.25-0.59-1.64c-0.59-0.36-1.21-0.69-1.79-1.07
	c-2.36-1.55-2.32-4.84,0.07-6.34c0.56-0.35,1.16-0.66,1.72-1.01c0.58-0.37,0.82-0.88,0.6-1.57c-0.23-0.71-0.45-1.43-0.69-2.13
	c-0.28-0.8-0.73-1.08-1.6-0.99C46.13,18.62,45.52,18.7,45.19,18.73z"/>
<path class="st0" d="M27.48,19.69c4.23-0.02,7.76,3.45,7.78,7.67c0.02,4.33-3.4,7.88-7.64,7.9c-4.42,0.03-7.91-3.4-7.93-7.78
	C19.68,23.17,23.13,19.72,27.48,19.69z M27.47,34.29c3.78,0,6.82-3.04,6.82-6.81c0-3.8-3.05-6.84-6.89-6.85
	c-3.65-0.01-6.77,3.11-6.77,6.8C20.63,31.22,23.7,34.3,27.47,34.29z"/>
<path class="st1" d="M14.14,27.5c2.74-5.05,7.88-8.17,13.42-8.14c5.48,0.03,10.54,3.14,13.26,8.13"/>
<path class="st1" d="M40.81,27.5c-2.74,5.05-7.88,8.17-13.42,8.14c-5.48-0.03-10.54-3.14-13.26-8.13"/>
</svg>
